<?xml version="1.0" encoding="utf-8"?>
<!-- Generator: Adobe Illustrator 26.5.0, SVG Export Plug-In . SVG Version: 6.00 Build 0)  -->
<svg version="1.1" id="Capa_1" xmlns="http://www.w3.org/2000/svg" xmlns:xlink="http://www.w3.org/1999/xlink" x="0px" y="0px"
	 viewBox="0 0 500 129.6" style="enable-background:new 0 0 500 129.6;" xml:space="preserve">
<style type="text/css">
	.st0{enable-background:new    ;}
	.st1{fill:#151515;}
</style>
<g>
	<g class="st0">
		<path class="st1" d="M53,3.2v15.6H36.3v47.3H16.5V18.8H0V3.2H53z"/>
		<path class="st1" d="M111.4,16v50.1H91.7v-7.6c-1.5,2.4-3.6,4.3-6.2,5.8c-2.6,1.5-5.6,2.2-9.2,2.2c-5.7,0-10.2-1.9-13.5-5.8
			c-3.2-3.9-4.8-9.1-4.8-15.6V16h19.6v26.6c0,2.4,0.6,4.3,1.9,5.6c1.3,1.4,3,2.1,5.1,2.1c2.2,0,3.9-0.7,5.2-2.1
			c1.2-1.4,1.9-3.3,1.9-5.6V16H111.4z"/>
		<path class="st1" d="M130,64.4c-3.6-1.5-6.5-3.7-8.7-6.4c-2.1-2.7-3.3-5.8-3.6-9.2h18.9c0.2,1.5,0.9,2.6,1.9,3.3
			c1,0.7,2.4,1.1,4,1.1c1,0,1.8-0.2,2.4-0.7c0.6-0.4,0.9-1,0.9-1.6c0-1.1-0.6-1.9-1.9-2.4c-1.2-0.5-3.3-1-6.3-1.6
			c-3.6-0.7-6.6-1.5-8.9-2.3c-2.3-0.8-4.4-2.3-6.1-4.3c-1.7-2-2.6-4.8-2.6-8.4c0-3.1,0.8-5.9,2.4-8.4c1.6-2.5,4-4.5,7.2-6
			c3.2-1.5,7.1-2.2,11.6-2.2c6.8,0,12,1.7,15.9,5c3.8,3.3,6.1,7.6,6.9,13h-17.5c-0.3-1.4-0.9-2.4-1.9-3.2c-0.9-0.7-2.2-1.1-3.8-1.1
			c-1,0-1.8,0.2-2.3,0.6c-0.5,0.4-0.8,1-0.8,1.7c0,1,0.6,1.8,1.9,2.3c1.2,0.5,3.2,1,6,1.6c3.6,0.7,6.7,1.5,9.2,2.4
			c2.5,0.9,4.7,2.4,6.5,4.6c1.8,2.2,2.8,5.1,2.8,8.9c0,3-0.9,5.6-2.6,8c-1.7,2.4-4.2,4.2-7.4,5.6c-3.2,1.4-7,2-11.3,2
			C137.8,66.7,133.7,66,130,64.4z"/>
		<path class="st1" d="M225.4,24.7c-0.8-1.2-1.9-2.2-3.3-2.9c-1.4-0.7-3.1-1-5.2-1c-3.8,0-6.7,1.2-8.8,3.7
			c-2.1,2.5-3.1,5.8-3.1,10.1c0,4.9,1.2,8.6,3.5,11c2.3,2.4,5.9,3.6,10.7,3.6c4.6,0,8.2-1.8,11-5.5h-15.7v-14h32.1v19.7
			c-2.7,4.7-6.5,8.7-11.3,12c-4.8,3.3-10.9,5-18.2,5c-6.5,0-12.2-1.3-17-4c-4.8-2.7-8.5-6.5-11.1-11.3c-2.6-4.9-3.9-10.4-3.9-16.6
			c0-6.2,1.3-11.8,3.9-16.6c2.6-4.9,6.3-8.6,11.1-11.3c4.8-2.7,10.4-4,16.9-4c8.2,0,14.9,2,20.1,6c5.2,4,8.3,9.4,9.2,16.2H225.4z"/>
		<path class="st1" d="M273.4,0.3v65.8h-19.7V0.3H273.4z"/>
		<path class="st1" d="M364,17.4c2.3-1.3,5.1-2,8.4-2c3.9,0,7.4,1,10.6,3.1c3.1,2,5.6,5,7.4,8.9c1.8,3.9,2.7,8.5,2.7,13.7
			c0,5.3-0.9,9.9-2.7,13.7c-1.8,3.9-4.3,6.8-7.4,8.9c-3.1,2-6.7,3.1-10.6,3.1c-3.3,0-6.1-0.7-8.4-2c-2.3-1.3-4.1-3.2-5.4-5.5v6.8
			h-19.7V0.3h19.7v22.5C359.8,20.5,361.6,18.7,364,17.4z M371,34.8c-1.4-1.5-3.1-2.2-5.2-2.2c-2.1,0-3.9,0.7-5.2,2.2
			c-1.4,1.5-2,3.6-2,6.2c0,2.7,0.7,4.7,2,6.2c1.4,1.5,3.1,2.2,5.2,2.2c2.1,0,3.9-0.7,5.2-2.2c1.4-1.5,2-3.6,2-6.2
			C373.1,38.4,372.4,36.3,371,34.8z"/>
		<path class="st1" d="M465.6,64.4c-3.6-1.5-6.5-3.7-8.7-6.4c-2.1-2.7-3.3-5.8-3.6-9.2h18.9c0.2,1.5,0.9,2.6,1.9,3.3
			c1,0.7,2.4,1.1,4,1.1c1,0,1.8-0.2,2.4-0.7c0.6-0.4,0.9-1,0.9-1.6c0-1.1-0.6-1.9-1.9-2.4c-1.2-0.5-3.3-1-6.3-1.6
			c-3.6-0.7-6.6-1.5-8.9-2.3c-2.3-0.8-4.4-2.3-6.1-4.3c-1.7-2-2.6-4.8-2.6-8.4c0-3.1,0.8-5.9,2.4-8.4c1.6-2.5,4-4.5,7.2-6
			c3.2-1.5,7.1-2.2,11.6-2.2c6.8,0,12,1.7,15.9,5c3.8,3.3,6.1,7.6,6.9,13h-17.5c-0.3-1.4-0.9-2.4-1.9-3.2c-0.9-0.7-2.2-1.1-3.8-1.1
			c-1,0-1.8,0.2-2.3,0.6c-0.5,0.4-0.8,1-0.8,1.7c0,1,0.6,1.8,1.9,2.3c1.2,0.5,3.2,1,6,1.6c3.6,0.7,6.7,1.5,9.2,2.4
			c2.5,0.9,4.7,2.4,6.5,4.6c1.8,2.2,2.8,5.1,2.8,8.9c0,3-0.9,5.6-2.6,8c-1.7,2.4-4.2,4.2-7.4,5.6c-3.2,1.4-7,2-11.3,2
			C473.4,66.7,469.2,66,465.6,64.4z"/>
	</g>
	<g>
		<path class="st1" d="M310,152.4c-0.6,0.2-1.4,0.5-2.4,0.8c-0.5-2.4-1-4.7-1.3-7c-0.6-5.3,0.2-10.5,1.8-15.5
			c1.2-4.1,2.1-8.2,1.3-12.4c-0.6-3.4-1.8-6.8-2.8-10.2c-1.3-4.1-1.9-8.2-1.8-12.5c0-0.5,0.1-1,0.2-1.5c0.1-1.6,1.1-2.3,2.9-2.1
			c-0.1,0.8-0.2,1.6-0.3,2.4c-0.6,5.9,1,11.5,3,16.9c1.5,3.9,2.1,8,1.7,12.2c-0.4,3.2-1.2,6.4-2,9.6c-1,3.7-1.7,7.4-1.4,11.2
			C309,147,309.6,149.6,310,152.4L310,152.4z"/>
		<path class="st1" d="M308.3,83.1c1.5,2.5,2.8,4.9,4.2,7.3h-11.7c1.4-2.4,2.7-4.7,4.1-7.3c-0.6,0-1,0-1.5,0
			c-1.5-0.1-2.7-1.1-2.7-2.6s1.1-2.6,2.6-2.6c2.2,0,4.3,0,6.5,0c1.5,0,2.5,1.1,2.5,2.5c0,1.5-1,2.6-2.6,2.6
			C309.4,83.1,309,83,308.3,83.1L308.3,83.1z"/>
		<path class="st1" d="M325.8,64.2c0.9-1.1,1.7-2.2,2.4-3.3c3.1-4.7,5.3-9.8,6.3-15.2c0.5-2.3,0.7-4.6,0.6-6.9c0-0.5,0-0.9,0-1.4
			c0-0.5-0.1-1-0.2-1.5c-0.1-1-0.3-2-0.5-3c-1.3-6.4-4.4-11.9-9.5-16.3c0,0-0.1-0.1-0.1-0.1c-1.4-1.2-2.9-2.3-4.5-3.2
			c-4.2-2.5-8.8-3.8-13.7-3.7c-4.9-0.1-9.5,1.2-13.7,3.7c-1.6,0.9-3.1,2-4.5,3.2c0,0-0.1,0.1-0.1,0.1c-5.1,4.4-8.2,9.9-9.5,16.3
			c-0.2,1-0.4,2-0.5,3c-0.1,0.5-0.2,1-0.2,1.5c0,0.5,0,0.9,0,1.4c0,2.3,0.2,4.6,0.6,6.9c1,5.4,3.2,10.5,6.3,15.2
			c0.7,1.1,1.5,2.3,2.4,3.3c0.9,1.2,1.9,2.4,2.9,3.6l0.6,0.5c4.8,4.7,10.6,7.8,15.6,7.9h0c0,0,0.1,0,0.1,0s0.1,0,0.1,0h0
			c5-0.1,10.7-3.4,15.5-8.1"/>
	</g>
	<g>
		<path class="st1" d="M427.1,152.4c-0.6,0.2-1.4,0.5-2.4,0.8c-0.5-2.4-1-4.7-1.3-7c-0.6-5.3,0.2-10.5,1.8-15.5
			c1.2-4.1,2.1-8.2,1.3-12.4c-0.6-3.4-1.8-6.8-2.8-10.2c-1.3-4.1-1.9-8.2-1.8-12.5c0-0.5,0.1-1,0.2-1.5c0.1-1.6,1.1-2.3,2.9-2.1
			c-0.1,0.8-0.2,1.6-0.3,2.4c-0.6,5.9,1,11.5,3,16.9c1.5,3.9,2.1,8,1.7,12.2c-0.4,3.2-1.2,6.4-2,9.6c-1,3.7-1.7,7.4-1.4,11.2
			C426.1,147,426.7,149.6,427.1,152.4L427.1,152.4z"/>
		<path class="st1" d="M425.4,83.1c1.5,2.5,2.8,4.9,4.2,7.3h-11.7c1.4-2.4,2.7-4.7,4.1-7.3c-0.6,0-1,0-1.5,0
			c-1.5-0.1-2.7-1.1-2.7-2.6s1.1-2.6,2.6-2.6c2.2,0,4.3,0,6.5,0c1.5,0,2.5,1.1,2.5,2.5c0,1.5-1,2.6-2.6,2.6
			C426.5,83.1,426.1,83,425.4,83.1L425.4,83.1z"/>
		<path class="st1" d="M442.9,64.2c0.9-1.1,1.7-2.2,2.4-3.3c3.1-4.7,5.3-9.8,6.3-15.2c0.5-2.3,0.7-4.6,0.6-6.9c0-0.5,0-0.9,0-1.4
			c0-0.5-0.1-1-0.2-1.5c-0.1-1-0.3-2-0.5-3c-1.3-6.4-4.4-11.9-9.5-16.3c0,0-0.1-0.1-0.1-0.1c-1.4-1.2-2.9-2.3-4.5-3.2
			c-4.2-2.5-8.8-3.8-13.7-3.7c-4.9-0.1-9.5,1.2-13.7,3.7c-1.6,0.9-3.1,2-4.5,3.2c0,0-0.1,0.1-0.1,0.1c-5.1,4.4-8.2,9.9-9.5,16.3
			c-0.2,1-0.4,2-0.5,3c-0.1,0.5-0.2,1-0.2,1.5c0,0.5,0,0.9,0,1.4c0,2.3,0.2,4.6,0.6,6.9c1,5.4,3.2,10.5,6.3,15.2
			c0.7,1.1,1.5,2.3,2.4,3.3c0.9,1.2,1.9,2.4,2.9,3.6l0.6,0.5c4.8,4.7,10.6,7.8,15.6,7.9h0c0,0,0.1,0,0.1,0s0.1,0,0.1,0h0
			c5-0.1,10.7-3.4,15.5-8.1"/>
	</g>
</g>
</svg>
